<svg width="76" height="79" viewBox="0 0 76 79" fill="none" xmlns="http://www.w3.org/2000/svg">
<rect width="76" height="79" rx="24" fill="#419FD9"/>
<rect width="76" height="79" rx="24" fill="url(#paint0_linear_53_272)"/>
<path d="M17.08 38.6306C28.1306 33.5208 35.4993 30.1521 39.1863 28.5245C49.7134 23.8774 51.9008 23.0702 53.3266 23.0432C53.6402 23.0376 54.3413 23.1201 54.7955 23.5113C55.179 23.8415 55.2845 24.2876 55.335 24.6008C55.3855 24.9139 55.4483 25.6272 55.3984 26.1845C54.8279 32.546 52.3595 47.9837 51.1037 55.1087C50.5723 58.1236 49.5261 59.1344 48.5131 59.2334C46.3118 59.4484 44.6402 57.6894 42.5082 56.2061C39.1719 53.885 37.2871 52.4401 34.0487 50.1751C30.3061 47.5576 32.7322 46.119 34.8651 43.7678C35.4233 43.1525 45.1223 33.7895 45.3101 32.9401C45.3335 32.8339 45.3553 32.4379 45.1337 32.2288C44.912 32.0198 44.5849 32.0913 44.3488 32.1481C44.0142 32.2287 38.6845 35.9675 28.3596 43.3645C26.8468 44.467 25.4765 45.0042 24.2488 44.9761C22.8953 44.945 20.2918 44.1639 18.3563 43.4962C15.9824 42.6772 14.0957 42.2442 14.26 40.8533C14.3455 40.1288 15.2856 39.3879 17.08 38.6306Z" fill="white"/>
<defs>
<linearGradient id="paint0_linear_53_272" x1="38" y1="0" x2="38" y2="78.4138" gradientUnits="userSpaceOnUse">
<stop stop-color="#2AABEE"/>
<stop offset="1" stop-color="#229ED9"/>
</linearGradient>
</defs>
</svg>
