<svg width="76" height="79" viewBox="0 0 76 79" fill="none" xmlns="http://www.w3.org/2000/svg">
<rect width="76" height="79" rx="24" fill="#5181B8"/>
<path fill-rule="evenodd" clip-rule="evenodd" d="M62.1682 27.2116C62.5206 25.9909 62.1682 25.0938 60.4919 25.0938H54.9489C53.5394 25.0938 52.8901 25.8687 52.5378 26.7235C52.5378 26.7235 49.7188 33.8652 45.7254 38.5043C44.4335 39.8472 43.8464 40.2739 43.1416 40.2739C42.7893 40.2739 42.2793 39.8472 42.2793 38.6265V27.2116C42.2793 25.7465 41.8703 25.0938 40.6956 25.0938H31.9852C31.1047 25.0938 30.575 25.7736 30.575 26.4181C30.575 27.8071 32.5712 28.1273 32.7771 32.0338V40.5188C32.7771 42.379 32.454 42.7165 31.7493 42.7165C29.8702 42.7165 25.2996 35.5423 22.5883 27.3338C22.057 25.7382 21.5241 25.0938 20.1075 25.0938H14.5645C12.9808 25.0938 12.6641 25.8687 12.6641 26.7235C12.6641 28.2495 14.5435 35.8189 21.414 45.8295C25.9949 52.6654 32.4477 56.3719 38.3201 56.3719C41.8438 56.3719 42.2793 55.5488 42.2793 54.131V48.9639C42.2793 47.3177 42.6131 46.9893 43.7284 46.9893C44.5511 46.9893 45.9602 47.4165 49.2492 50.7126C53.0073 54.6187 53.6265 56.3719 55.7408 56.3719H61.2838C62.8675 56.3719 63.6593 55.5488 63.2024 53.9244C62.7027 52.3053 60.9084 49.957 58.5273 47.1724C57.2354 45.585 55.2974 43.8759 54.7106 43.0215C53.8883 41.9226 54.123 41.4345 54.7106 40.4583C54.7106 40.4583 61.4635 30.5695 62.1682 27.212V27.2116Z" fill="white"/>
</svg>
